<?xml version="1.0" encoding="UTF-8" standalone="no"?>
<!DOCTYPE svg PUBLIC "-//W3C//DTD SVG 1.1//EN"
 "http://www.w3.org/Graphics/SVG/1.1/DTD/svg11.dtd">
<!-- Generated by graphviz version 2.40.1 (20161225.0304)
 -->
<!-- Title: %3 Pages: 1 -->
<svg width="242pt" height="116pt"
 viewBox="0.00 0.00 242.00 116.00" xmlns="http://www.w3.org/2000/svg" xmlns:xlink="http://www.w3.org/1999/xlink">
<g id="graph0" class="graph" transform="scale(1 1) rotate(0) translate(4 112)">
<title>%3</title>
<polygon fill="#ffffff" stroke="transparent" points="-4,4 -4,-112 238,-112 238,4 -4,4"/>
<!-- 0 -->
<g id="node1" class="node">
<title>0</title>
<ellipse fill="none" stroke="#000000" cx="27" cy="-18" rx="27" ry="18"/>
<text text-anchor="middle" x="27" y="-14.3" font-family="Times,serif" font-size="14.00" fill="#000000">a</text>
</g>
<!-- 1 -->
<g id="node2" class="node">
<title>1</title>
<ellipse fill="none" stroke="#000000" cx="117" cy="-41" rx="27" ry="18"/>
<text text-anchor="middle" x="117" y="-37.3" font-family="Times,serif" font-size="14.00" fill="#000000">b</text>
</g>
<!-- 0&#45;&gt;1 -->
<g id="edge1" class="edge">
<title>0&#45;&gt;1</title>
<path fill="none" stroke="#000000" d="M52.5497,-24.5294C61.6523,-26.8556 72.0697,-29.5178 81.8371,-32.0139"/>
<polygon fill="#000000" stroke="#000000" points="81.1427,-35.4489 91.698,-34.5339 82.876,-28.6668 81.1427,-35.4489"/>
</g>
<!-- 2 -->
<g id="node3" class="node">
<title>2</title>
<ellipse fill="none" stroke="#000000" cx="207" cy="-90" rx="27" ry="18"/>
<text text-anchor="middle" x="207" y="-86.3" font-family="Times,serif" font-size="14.00" fill="#000000">c</text>
</g>
<!-- 1&#45;&gt;2 -->
<g id="edge2" class="edge">
<title>1&#45;&gt;2</title>
<path fill="none" stroke="#000000" d="M138.3287,-52.6123C149.8734,-58.8977 164.3238,-66.7652 176.9867,-73.6595"/>
<polygon fill="#000000" stroke="#000000" points="175.3681,-76.7632 185.8244,-78.471 178.7153,-70.6154 175.3681,-76.7632"/>
</g>
<!-- 3 -->
<g id="node4" class="node">
<title>3</title>
<ellipse fill="none" stroke="#000000" cx="207" cy="-18" rx="27" ry="18"/>
<text text-anchor="middle" x="207" y="-14.3" font-family="Times,serif" font-size="14.00" fill="#000000">d</text>
</g>
<!-- 1&#45;&gt;3 -->
<g id="edge3" class="edge">
<title>1&#45;&gt;3</title>
<path fill="none" stroke="#000000" d="M138.3287,-29.7094C147.7828,-26.4909 159.1854,-23.3051 169.9594,-20.8107"/>
<polygon fill="#000000" stroke="#000000" points="170.9697,-24.1736 180.0123,-18.6524 169.5004,-17.3295 170.9697,-24.1736"/>
</g>
<!-- 3&#45;&gt;0 -->
<g id="edge4" class="edge">
<title>3&#45;&gt;0</title>
<path fill="none" stroke="#000000" d="M180.0394,-15.9113C168.8915,-15.1457 155.8303,-14.3752 144,-14 120.0121,-13.2392 113.9879,-13.2392 90,-14 81.5894,-14.2667 72.5567,-14.7333 64.0316,-15.2558"/>
<polygon fill="#000000" stroke="#000000" points="63.7122,-11.7691 53.9606,-15.9113 64.1669,-18.7543 63.7122,-11.7691"/>
</g>
<!-- 3&#45;&gt;1 -->
<g id="edge5" class="edge">
<title>3&#45;&gt;1</title>
<path fill="none" stroke="#000000" d="M185.7336,-29.2694C176.276,-32.4921 164.8591,-35.6836 154.0701,-38.1825"/>
<polygon fill="#000000" stroke="#000000" points="153.0451,-34.8227 144.003,-40.3446 154.515,-41.6667 153.0451,-34.8227"/>
</g>
<!-- 3&#45;&gt;3 -->
<g id="edge6" class="edge">
<title>3&#45;&gt;3</title>
<path fill="none" stroke="#000000" d="M191.7729,-33.1666C187.1587,-43.6641 192.2344,-54 207,-54 216.9207,-54 222.4671,-49.3342 223.6394,-43.0884"/>
<polygon fill="#000000" stroke="#000000" points="227.1015,-42.5736 222.2271,-33.1666 220.1713,-43.5601 227.1015,-42.5736"/>
</g>
</g>
</svg>
