<?xml version="1.0" encoding="UTF-8" standalone="no"?>
<!DOCTYPE svg PUBLIC "-//W3C//DTD SVG 1.1//EN"
 "http://www.w3.org/Graphics/SVG/1.1/DTD/svg11.dtd">
<!-- Generated by graphviz version 2.40.1 (20161225.0304)
 -->
<!-- Title: %3 Pages: 1 -->
<svg width="198pt" height="371pt"
 viewBox="0.00 0.00 198.00 371.00" xmlns="http://www.w3.org/2000/svg" xmlns:xlink="http://www.w3.org/1999/xlink">
<g id="graph0" class="graph" transform="scale(1 1) rotate(0) translate(4 367)">
<title>%3</title>
<polygon fill="#ffffff" stroke="transparent" points="-4,4 -4,-367 194,-367 194,4 -4,4"/>
<!-- 0 -->
<g id="node1" class="node">
<title>0</title>
<text text-anchor="start" x="55" y="-276.3" font-family="Times,serif" font-size="14.00" fill="#000000">local.get 0</text>
<text text-anchor="start" x="55" y="-261.3" font-family="Times,serif" font-size="14.00" fill="#000000">i64.const 0</text>
<text text-anchor="start" x="55" y="-246.3" font-family="Times,serif" font-size="14.00" fill="#000000">i64.eq</text>
<text text-anchor="start" x="55" y="-231.3" font-family="Times,serif" font-size="14.00" fill="#000000">if [i64]</text>
<polyline fill="none" stroke="#000000" points="95,-225.5 53,-225.5 "/>
<text text-anchor="start" x="69" y="-211.3" font-family="Times,serif" font-size="14.00" fill="#000000">T</text>
<polyline fill="none" stroke="#000000" points="137,-225.5 95,-225.5 95,-204.5 "/>
<text text-anchor="start" x="111" y="-211.3" font-family="Times,serif" font-size="14.00" fill="#000000">F</text>
<polygon fill="none" stroke="#000000" points="52,-204 52,-291 138,-291 138,-204 52,-204"/>
</g>
<!-- 1 -->
<g id="node2" class="node">
<title>1</title>
<text text-anchor="start" x="3" y="-115.8" font-family="Times,serif" font-size="14.00" fill="#000000">i64.const 1</text>
<polygon fill="none" stroke="#000000" points="0,-109.5 0,-130.5 86,-130.5 86,-109.5 0,-109.5"/>
</g>
<!-- 0&#45;&gt;1 -->
<g id="edge2" class="edge">
<title>0:T&#45;&gt;1</title>
<path fill="none" stroke="#000000" d="M74,-204.5C74,-184.5717 66.3067,-163.5282 58.5851,-147.4262"/>
<polygon fill="#000000" stroke="#000000" points="61.4929,-145.4224 53.8423,-138.0932 55.2525,-148.5937 61.4929,-145.4224"/>
</g>
<!-- 3 -->
<g id="node3" class="node">
<title>3</title>
<text text-anchor="start" x="107" y="-153.8" font-family="Times,serif" font-size="14.00" fill="#000000">local.get 0</text>
<text text-anchor="start" x="107" y="-138.8" font-family="Times,serif" font-size="14.00" fill="#000000">local.get 0</text>
<text text-anchor="start" x="107" y="-123.8" font-family="Times,serif" font-size="14.00" fill="#000000">i64.const 1</text>
<text text-anchor="start" x="107" y="-108.8" font-family="Times,serif" font-size="14.00" fill="#000000">i64.sub</text>
<text text-anchor="start" x="107" y="-93.8" font-family="Times,serif" font-size="14.00" fill="#000000">call 0</text>
<text text-anchor="start" x="107" y="-78.8" font-family="Times,serif" font-size="14.00" fill="#000000">i64.mul</text>
<polygon fill="none" stroke="#000000" points="104,-72 104,-168 190,-168 190,-72 104,-72"/>
</g>
<!-- 0&#45;&gt;3 -->
<g id="edge3" class="edge">
<title>0:F&#45;&gt;3</title>
<path fill="none" stroke="#000000" d="M116,-204.5C116,-195.6443 117.5192,-186.5684 119.885,-177.8038"/>
<polygon fill="#000000" stroke="#000000" points="123.2847,-178.656 122.8799,-168.0689 116.5941,-176.5976 123.2847,-178.656"/>
</g>
<!-- end -->
<g id="node5" class="node">
<title>end</title>
<ellipse fill="none" stroke="#000000" cx="95" cy="-18" rx="27.8951" ry="18"/>
<text text-anchor="middle" x="95" y="-14.3" font-family="Times,serif" font-size="14.00" fill="#000000">end</text>
</g>
<!-- 1&#45;&gt;end -->
<g id="edge4" class="edge">
<title>1&#45;&gt;end</title>
<path fill="none" stroke="#000000" d="M52.2966,-101.7644C60.3812,-85.906 72.2026,-62.718 81.359,-44.7574"/>
<polygon fill="#000000" stroke="#000000" points="84.7073,-45.8956 86.131,-35.3968 78.4709,-42.7162 84.7073,-45.8956"/>
</g>
<!-- 3&#45;&gt;end -->
<g id="edge5" class="edge">
<title>3&#45;&gt;end</title>
<path fill="none" stroke="#000000" d="M122.5227,-71.9868C117.6996,-62.5261 112.8064,-52.9279 108.51,-44.5004"/>
<polygon fill="#000000" stroke="#000000" points="111.6085,-42.872 103.9484,-35.5526 105.3721,-46.0513 111.6085,-42.872"/>
</g>
<!-- start -->
<g id="node4" class="node">
<title>start</title>
<ellipse fill="none" stroke="#000000" cx="95" cy="-345" rx="33.2948" ry="18"/>
<text text-anchor="middle" x="95" y="-341.3" font-family="Times,serif" font-size="14.00" fill="#000000">start</text>
</g>
<!-- start&#45;&gt;0 -->
<g id="edge1" class="edge">
<title>start&#45;&gt;0</title>
<path fill="none" stroke="#000000" d="M95,-326.661C95,-319.3666 95,-310.5597 95,-301.5082"/>
<polygon fill="#000000" stroke="#000000" points="98.5001,-301.2523 95,-291.2523 91.5001,-301.2524 98.5001,-301.2523"/>
</g>
</g>
</svg>
