<?xml version="1.0" encoding="UTF-8" standalone="no"?>
<!DOCTYPE svg PUBLIC "-//W3C//DTD SVG 1.1//EN"
 "http://www.w3.org/Graphics/SVG/1.1/DTD/svg11.dtd">
<!-- Generated by graphviz version 2.40.1 (20161225.0304)
 -->
<!-- Title: %3 Pages: 1 -->
<svg width="486pt" height="436pt"
 viewBox="0.00 0.00 486.00 436.00" xmlns="http://www.w3.org/2000/svg" xmlns:xlink="http://www.w3.org/1999/xlink">
<g id="graph0" class="graph" transform="scale(1 1) rotate(0) translate(4 432)">
<title>%3</title>
<polygon fill="#ffffff" stroke="transparent" points="-4,4 -4,-432 482,-432 482,4 -4,4"/>
<g id="clust1" class="cluster">
<title>cluster_0</title>
<polygon fill="none" stroke="#000000" points="8,-224 8,-420 230,-420 230,-224 8,-224"/>
</g>
<g id="clust2" class="cluster">
<title>cluster_1</title>
<polygon fill="none" stroke="#000000" points="312,-8 312,-60 390,-60 390,-8 312,-8"/>
</g>
<g id="clust3" class="cluster">
<title>cluster_2</title>
<polygon fill="none" stroke="#000000" points="358,-152 358,-204 470,-204 470,-152 358,-152"/>
</g>
<g id="clust4" class="cluster">
<title>cluster_3</title>
<polygon fill="none" stroke="#000000" points="316,-80 316,-132 386,-132 386,-80 316,-80"/>
</g>
<g id="clust5" class="cluster">
<title>cluster_4</title>
<polygon fill="none" stroke="#000000" points="238,-152 238,-420 350,-420 350,-152 238,-152"/>
</g>
<!-- 0 -->
<g id="node1" class="node">
<title>0</title>
<polygon fill="none" stroke="#000000" points="222,-412 130,-412 130,-376 222,-376 222,-412"/>
<text text-anchor="middle" x="176" y="-390.3" font-family="Times,serif" font-size="14.00" fill="#000000">local.get 0</text>
</g>
<!-- 3 -->
<g id="node3" class="node">
<title>3</title>
<polygon fill="none" stroke="#000000" points="120.5,-340 59.5,-340 59.5,-304 120.5,-304 120.5,-340"/>
<text text-anchor="middle" x="90" y="-318.3" font-family="Times,serif" font-size="14.00" fill="#000000">i64.eq</text>
</g>
<!-- 0&#45;&gt;3 -->
<g id="edge1" class="edge">
<title>0&#45;&gt;3</title>
<path fill="none" stroke="#000000" d="M154.2986,-375.8314C143.8079,-367.0485 131.0545,-356.3712 119.6806,-346.8489"/>
<polygon fill="#000000" stroke="#000000" points="121.6089,-343.8986 111.6945,-340.1628 117.1153,-349.2659 121.6089,-343.8986"/>
</g>
<!-- 8 -->
<g id="node9" class="node">
<title>8</title>
<polygon fill="none" stroke="#000000" points="322.5,-340 253.5,-340 253.5,-304 322.5,-304 322.5,-340"/>
<text text-anchor="middle" x="288" y="-318.3" font-family="Times,serif" font-size="14.00" fill="#000000">i64.sub</text>
</g>
<!-- 0&#45;&gt;8 -->
<g id="edge10" class="edge">
<title>0&#45;&gt;8</title>
<path fill="none" stroke="#000000" d="M204.2623,-375.8314C218.4552,-366.7074 235.8282,-355.539 251.0636,-345.7449"/>
<polygon fill="#000000" stroke="#000000" points="253.2276,-348.5146 259.7467,-340.1628 249.4422,-342.6263 253.2276,-348.5146"/>
</g>
<!-- 10 -->
<g id="node11" class="node">
<title>10</title>
<polygon fill="none" stroke="#000000" points="323.5,-196 252.5,-196 252.5,-160 323.5,-160 323.5,-196"/>
<text text-anchor="middle" x="288" y="-174.3" font-family="Times,serif" font-size="14.00" fill="#000000">i64.mul</text>
</g>
<!-- 0&#45;&gt;10 -->
<g id="edge11" class="edge">
<title>0&#45;&gt;10</title>
<path fill="none" stroke="#000000" d="M182.2123,-375.8659C193.5369,-343.9261 219.3178,-276.0904 251,-224 255.0277,-217.3779 259.9046,-210.654 264.7775,-204.4663"/>
<polygon fill="#000000" stroke="#000000" points="267.7314,-206.3823 271.3399,-196.4208 262.307,-201.9578 267.7314,-206.3823"/>
</g>
<!-- 2 -->
<g id="node2" class="node">
<title>2</title>
<polygon fill="none" stroke="#000000" points="112,-412 16,-412 16,-376 112,-376 112,-412"/>
<text text-anchor="middle" x="64" y="-390.3" font-family="Times,serif" font-size="14.00" fill="#000000">i64.const 0</text>
</g>
<!-- 2&#45;&gt;3 -->
<g id="edge2" class="edge">
<title>2&#45;&gt;3</title>
<path fill="none" stroke="#000000" d="M70.5609,-375.8314C73.4027,-367.9617 76.7937,-358.5712 79.9419,-349.8533"/>
<polygon fill="#000000" stroke="#000000" points="83.2462,-351.0076 83.3508,-340.4133 76.6623,-348.63 83.2462,-351.0076"/>
</g>
<!-- 4 -->
<g id="node4" class="node">
<title>4</title>
<polygon fill="none" stroke="#000000" points="122,-268 58,-268 58,-232 122,-232 122,-268"/>
<text text-anchor="middle" x="90" y="-246.3" font-family="Times,serif" font-size="14.00" fill="#000000">if [i64]</text>
</g>
<!-- 3&#45;&gt;4 -->
<g id="edge3" class="edge">
<title>3&#45;&gt;4</title>
<path fill="none" stroke="#000000" d="M90,-303.8314C90,-296.131 90,-286.9743 90,-278.4166"/>
<polygon fill="#000000" stroke="#000000" points="93.5001,-278.4132 90,-268.4133 86.5001,-278.4133 93.5001,-278.4132"/>
</g>
<!-- 12 -->
<g id="node5" class="node">
<title>12</title>
<polygon fill="none" stroke="#000000" points="382,-52 320,-52 320,-16 382,-16 382,-52"/>
<text text-anchor="middle" x="351" y="-30.3" font-family="Times,serif" font-size="14.00" fill="#000000">return</text>
</g>
<!-- 5 -->
<g id="node6" class="node">
<title>5</title>
<polygon fill="none" stroke="#000000" points="462,-196 366,-196 366,-160 462,-160 462,-196"/>
<text text-anchor="middle" x="414" y="-174.3" font-family="Times,serif" font-size="14.00" fill="#000000">i64.const 1</text>
</g>
<!-- 11 -->
<g id="node7" class="node">
<title>11</title>
<polygon fill="none" stroke="#000000" points="378,-124 324,-124 324,-88 378,-88 378,-124"/>
<text text-anchor="middle" x="351" y="-102.3" font-family="Times,serif" font-size="14.00" fill="#000000">phi</text>
</g>
<!-- 5&#45;&gt;11 -->
<g id="edge8" class="edge">
<title>5&#45;&gt;11</title>
<path fill="none" stroke="#000000" d="M398.1024,-159.8314C390.7722,-151.454 381.934,-141.3531 373.9031,-132.1749"/>
<polygon fill="#000000" stroke="#000000" points="376.3307,-129.6343 367.1116,-124.4133 371.0627,-134.2438 376.3307,-129.6343"/>
</g>
<!-- 11&#45;&gt;12 -->
<g id="edge7" class="edge">
<title>11&#45;&gt;12</title>
<path fill="none" stroke="#000000" d="M351,-87.8314C351,-80.131 351,-70.9743 351,-62.4166"/>
<polygon fill="#000000" stroke="#000000" points="354.5001,-62.4132 351,-52.4133 347.5001,-62.4133 354.5001,-62.4132"/>
</g>
<!-- 7 -->
<g id="node8" class="node">
<title>7</title>
<polygon fill="none" stroke="#000000" points="342,-412 246,-412 246,-376 342,-376 342,-412"/>
<text text-anchor="middle" x="294" y="-390.3" font-family="Times,serif" font-size="14.00" fill="#000000">i64.const 1</text>
</g>
<!-- 7&#45;&gt;8 -->
<g id="edge4" class="edge">
<title>7&#45;&gt;8</title>
<path fill="none" stroke="#000000" d="M292.4859,-375.8314C291.8442,-368.131 291.0812,-358.9743 290.3681,-350.4166"/>
<polygon fill="#000000" stroke="#000000" points="293.8529,-350.088 289.5344,-340.4133 286.8771,-350.6694 293.8529,-350.088"/>
</g>
<!-- 9 -->
<g id="node10" class="node">
<title>9</title>
<polygon fill="none" stroke="#000000" points="316,-268 260,-268 260,-232 316,-232 316,-268"/>
<text text-anchor="middle" x="288" y="-246.3" font-family="Times,serif" font-size="14.00" fill="#000000">call 0</text>
</g>
<!-- 8&#45;&gt;9 -->
<g id="edge5" class="edge">
<title>8&#45;&gt;9</title>
<path fill="none" stroke="#000000" d="M288,-303.8314C288,-296.131 288,-286.9743 288,-278.4166"/>
<polygon fill="#000000" stroke="#000000" points="291.5001,-278.4132 288,-268.4133 284.5001,-278.4133 291.5001,-278.4132"/>
</g>
<!-- 9&#45;&gt;10 -->
<g id="edge6" class="edge">
<title>9&#45;&gt;10</title>
<path fill="none" stroke="#000000" d="M288,-231.8314C288,-224.131 288,-214.9743 288,-206.4166"/>
<polygon fill="#000000" stroke="#000000" points="291.5001,-206.4132 288,-196.4133 284.5001,-206.4133 291.5001,-206.4132"/>
</g>
<!-- 10&#45;&gt;11 -->
<g id="edge9" class="edge">
<title>10&#45;&gt;11</title>
<path fill="none" stroke="#000000" d="M303.8976,-159.8314C311.2278,-151.454 320.066,-141.3531 328.0969,-132.1749"/>
<polygon fill="#000000" stroke="#000000" points="330.9373,-134.2438 334.8884,-124.4133 325.6693,-129.6343 330.9373,-134.2438"/>
</g>
</g>
</svg>
